<?xml version="1.0" encoding="utf-8"?>
<svg xmlns="http://www.w3.org/2000/svg" viewBox="-247.1756 438.4341 960 138.8178" width="960px" height="138.818px">
  <path fill="#ea4335" d="m53.729763 401.18216l-2.875801 0.124298096l-2.7481346 0.25195312l-2.8724403 0.4972229l-2.7514954 0.74920654l-2.8724442 0.87683105l-2.7481346 1.1254578l-2.7481384 1.3740845l-2.6238308 1.498352l-2.6271915 1.8746643l-28.862152 22.240417l0 108.081024l12.618583 0l81.97039 -61.97415l0.7491913 -34.986664l-0.124305725 -3.1244202l-0.3762741 -3.1243896l-0.50057983 -2.9967651l-0.74918365 -2.8757935l-0.8734894 -2.7481384l-1.1254578 -2.7481384l-1.2497635 -2.4995117l-1.4983749 -2.4995422l-1.6260376 -2.2475586l-1.7469788 -2.2509155l-1.874649 -1.9989624l-1.9989471 -1.8746338l-2.1266174 -1.8712769l-2.2475586 -1.6260376l-2.3752213 -1.3740845l-2.3718643 -1.374054l-2.499527 -1.1254578l-2.6238327 -0.99780273l-2.6238327 -0.8768616l-2.7514954 -0.6248779l-2.7481384 -0.4972229l-2.7481346 -0.25195312l-2.7481384 -0.124298096z" fill-rule="evenodd" transform="matrix(1, 0, 0, 1, -247.17556762695307, 37.251922607421875)"/>
  <path fill="#4285f4" d="m94.71328 477.77722l-81.96703 61.974182l81.96703 0l0 -61.974182z" fill-rule="evenodd" transform="matrix(1, 0, 0, 1, -247.17556762695307, 37.251922607421875)"/>
  <path fill="#4285f4" d="m557.781 494.01743l0 45.73398l99.463745 0l0 -45.73398z" fill-rule="evenodd" transform="matrix(1, 0, 0, 1, -247.17556762695307, 37.251922607421875)"/>
  <path fill="#fbbc05" d="m94.71328 484.52325l0 55.22815l255.39862 0l0 -55.22815z" fill-rule="evenodd" transform="matrix(1, 0, 0, 1, -247.17556762695307, 37.251922607421875)"/>
  <path fill="#00832d" d="m350.1119 484.52325l0 55.22815l101.7113 0l0 -55.22815z" fill-rule="evenodd" transform="matrix(1, 0, 0, 1, -247.17556762695307, 37.251922607421875)"/>
  <path fill="#34a853" d="m365.1057 405.68063l-1.498352 0.124298096l-1.4983826 0.24862671l-1.4983826 0.25195312l-1.3774109 0.6248779l-1.2463989 0.6248779l-1.2497864 0.74920654l-1.1254578 0.8734741l-1.1254578 0.8768616l-0.99780273 1.1221008l-0.87683105 1.1254578l-0.74920654 1.2497559l-0.6248779 1.3740845l-0.50057983 1.374054l-0.3728943 1.374054l-0.25198364 1.5017395l0 1.6226807l0 63.724518l101.7113 0l0 -63.724518l0 -1.6226807l-0.24862671 -1.5017395l-0.37625122 -1.374054l-0.50057983 -1.374054l-0.6248779 -1.3740845l-0.74920654 -1.2497559l-0.8734741 -1.1254578l-1.0011597 -1.1221008l-0.99780273 -0.8768616l-1.2497559 -0.8734741l-1.2497559 -0.74920654l-1.2497864 -0.6248779l-1.374054 -0.6248779l-1.4983826 -0.25195312l-1.5017395 -0.24862671l-1.498352 -0.124298096z" fill-rule="evenodd" transform="matrix(1, 0, 0, 1, -247.17556762695307, 37.251922607421875)"/>
  <path fill="#0066da" d="m176.05544 484.39896l45.733963 55.352448l45.982574 -55.352448z" fill-rule="evenodd" transform="matrix(1, 0, 0, 1, -247.17556762695307, 37.251922607421875)"/>
  <path fill="#4285f4" d="m136.57028 410.92828l-1.6226654 0.12432861l-1.3740692 0.25195312l-1.3740692 0.621521l-1.2497711 0.6248779l-1.1254578 0.8768616l-1.0011597 0.99780273l-0.749176 1.1254578l-0.7491913 1.1254578l-0.5005722 1.2497559l-0.24861145 1.374054l-0.124305725 1.3740845l0 1.374054l0.24861145 1.3740845l0.3762741 1.374054l0.74918365 1.3740845l0.8734894 1.2497559l47.356644 57.102783l91.71654 0l47.605255 -57.35138l0.8734741 -1.2497864l0.6248779 -1.2497559l0.50057983 -1.374054l0.24862671 -1.3740845l0 -1.374054l-0.24862671 -1.3740845l-0.24859619 -1.374054l-0.6248779 -1.2497559l-0.6248779 -1.1254883l-0.8768616 -1.1254578l-0.87350464 -0.9977722l-1.1254578 -0.7525635l-1.2497559 -0.749176l-1.374054 -0.4972229l-1.3740845 -0.25195312l-1.6226807 -0.12432861z" fill-rule="evenodd" transform="matrix(1, 0, 0, 1, -247.17556762695307, 37.251922607421875)"/>
  <path fill="#34a853" d="m490.68347 449.036l-1.7503357 0.12765503l-1.6226807 0.24862671l-1.7503357 0.50057983l-1.4983826 0.6248779l-1.5017395 0.8734741l-1.374054 1.1254578l-1.2497864 1.2497864l-0.9977722 1.374054l-0.87350464 1.6226807l-0.6248779 1.6260376l-0.37628174 1.8746338l-0.124298096 1.9989624l0 77.46857l80.717255 0l0 -45.73398l-59.97522 -42.481873l-1.6260376 -0.99780273l-1.7469788 -0.74920654l-1.7503357 -0.50057983l-1.8746338 -0.25195312z" fill-rule="evenodd" transform="matrix(1, 0, 0, 1, -247.17556762695307, 37.251922607421875)"/>
  <path fill="#0066da" d="m557.6567 494.01743l0 45.73398l62.726746 0l-62.726746 -45.73398z" fill-rule="evenodd" transform="matrix(1, 0, 0, 1, -247.17556762695307, 37.251922607421875)"/>
  <path fill="#ea4335" d="m657.24475 405.68063l-99.463745 88.33679l99.463745 0l0 -88.33679z" fill-rule="evenodd" transform="matrix(1, 0, 0, 1, -247.17556762695307, 37.251922607421875)"/>
  <path fill="#4285f4" d="m868.9117 410.6797l-1.8746338 1.1221008l-1.8746338 1.1254578l-1.7503662 1.374054l-1.7469482 1.3740845l-1.50177 1.5017395l-1.498352 1.498352l-1.2497559 1.7503357l-1.2497559 1.7470093l-74.09552 117.82718l110.704834 0l31.365051 -47.35663l-55.22815 -81.963684z" fill-rule="evenodd" transform="matrix(1, 0, 0, 1, -247.17556762695307, 37.251922607421875)"/>
  <path fill="#ea4335" d="m888.0277 405.92923l-2.3752441 0.12432861l-2.4961548 0.25195312l-2.4995117 0.50057983l-2.4995117 0.4972229l-2.4995728 0.75253296l-2.375183 0.74920654l-2.2475586 0.8734741l-2.123291 1.0011597l55.22815 81.963684l35.483887 -54.475616l0 -32.238525z" fill-rule="evenodd" transform="matrix(1, 0, 0, 1, -247.17556762695307, 37.251922607421875)"/>
  <path fill="#fbbc05" d="m959.49945 438.16776l-35.35962 54.475616l31.113098 47.108032l4.7470703 0l-0.5005493 -101.58365z" fill-rule="evenodd" transform="matrix(1, 0, 0, 1, -247.17556762695307, 37.251922607421875)"/>
  <path fill="#fbbc05" d="m657.11707 405.92923l0 88.34018l61.104065 0l0 45.73059l88.588745 0l0 -108.45395l-0.12432861 -2.6238403l-0.37628174 -2.4995422l-0.6248779 -2.4995117l-0.8734741 -2.2509155l-1.0011597 -2.2475586l-1.2497559 -2.1232605l-1.3740845 -1.9989624l-1.6226807 -1.8746338l-1.7503052 -1.6260376l-1.8746338 -1.4983826l-1.9989624 -1.2497559l-2.123291 -1.1254578l-2.2509155 -0.87350464l-2.3718262 -0.6248779l-2.3752441 -0.37625122l-2.4995117 -0.12432861z" fill-rule="evenodd" transform="matrix(1, 0, 0, 1, -247.17556762695307, 37.251922607421875)"/>
</svg>