<?xml version="1.0" encoding="utf-8"?>
<svg xmlns="http://www.w3.org/2000/svg" viewBox="-234.2049 325.8399 369.975 184.2793" width="369.975px" height="184.279px">
  <path fill="#fbbc05" d="m-0.7698168 357.2903l0 184.27927l129.66281 0l-129.66281 -184.27927z" fill-rule="evenodd" transform="matrix(1, 0, 0, 1, -233.4351196289063, -31.45037269592285)"/>
  <path fill="#4285f4" d="m93.49451 491.3022l4.450058 6.1694946l31.049408 44.0979l240.2112 0l0 -3.1358643l0 -18.306519l-0.100982666 -1.5161133l-0.100982666 -1.4165039l-0.20199585 -1.4164429l-0.20327759 -1.4151611l-0.40396118 -1.4164429l-0.40524292 -1.3141785l-0.40396118 -1.3154602l-0.60723877 -1.3141785l-0.60595703 -1.3154602l-0.60723877 -1.2131958l-0.70822144 -1.2144775l-0.8092041 -1.1121826l-0.9102173 -1.2131653l-0.8092346 -1.0125122l-1.0112 -1.1121826l-1.0112 -1.0112l-1.0112 -0.9102173l-1.1134644 -0.9102173l-1.1122131 -0.91018677l-1.2131653 -0.8092346l-1.2144775 -0.70822144l-1.2131958 -0.70822144l-1.3154602 -0.70825195l-1.3141785 -0.50494385l-1.4164429 -0.60723877l-1.3141785 -0.40396118l-1.517456 -0.40524292l-1.4164429 -0.30297852l-1.5161438 -0.30297852l-1.4164734 -0.20327759l-1.6184387 -0.100982666z" fill-rule="evenodd" transform="matrix(1, 0, 0, 1, -233.4351196289063, -31.45037269592285)"/>
  <path fill="#ea4335" d="m-0.7698168 491.3022l0 50.267395l129.66281 0l-30.948425 -44.0979l-4.450058 -6.1694946z" fill-rule="evenodd" transform="matrix(1, 0, 0, 1, -233.4351196289063, -31.45037269592285)"/>
</svg>